<svg width="45" height="40" xmlns="http://www.w3.org/2000/svg" viewBox="0 0 377.24 339.22">
    <defs>
        <style>.cls-1{stroke:#000;stroke-miterlimit:10;}</style>
    </defs>
    <g id="Layer_2" data-name="Layer 2">
        <g id="Layer_1-2" data-name="Layer 1">
            <path class="cls-1" d="M.71,301.86C-3,213.32,41.79,62.93,184.18,14.86c95.76-32.84,192.71-1,192.44,13-.31,16.39-134-8.29-190.44,69-32.27,44.13-10.64,82.23-43.88,131C108.94,276.81,48.82,294.65.71,301.86Z"/>
            <path class="cls-1" d="M376.53,37.37c3.74,88.53-41.07,238.93-183.47,287C97.3,357.2.35,325.35.62,311.37c.31-16.4,134,8.28,190.45-69,32.26-44.14,10.64-82.24,43.87-131C268.3,62.41,328.42,44.57,376.53,37.37Z"/>
        </g>
    </g>
</svg>